<?xml version="1.0" standalone="no"?>
<!DOCTYPE svg PUBLIC "-//W3C//DTD SVG 20010904//EN"
 "http://www.w3.org/TR/2001/REC-SVG-20010904/DTD/svg10.dtd">
<svg version="1.0" xmlns="http://www.w3.org/2000/svg"
 width="237.000000pt" height="237.000000pt" viewBox="0 0 237.000000 237.000000"
 preserveAspectRatio="xMidYMid meet">

<g transform="translate(0.000000,237.000000) scale(0.100000,-0.100000)"
fill="#000000" stroke="none">
<path d="M1070 1929 c-337 -191 -891 -518 -912 -537 l-28 -26 0 -330 c0 -329
6 -396 36 -396 6 0 99 51 205 113 739 432 735 429 803 430 70 1 32 21 755
-400 198 -115 266 -151 273 -141 17 26 38 113 38 156 0 58 -30 111 -83 144
-23 14 -195 115 -382 224 -187 108 -383 222 -435 253 -91 54 -98 56 -165 56
l-70 0 -275 -161 c-422 -247 -438 -256 -462 -252 -20 3 -23 10 -26 51 -4 66
11 85 110 142 46 26 205 118 353 205 149 86 285 162 303 169 19 8 55 12 86 9
48 -4 87 -24 372 -190 176 -102 380 -220 454 -263 74 -43 154 -91 177 -107
l43 -29 0 136 c0 144 -6 170 -52 211 -20 18 -845 501 -935 548 -52 26 -119 21
-183 -15z"/>
<path d="M383 630 c-33 -11 -173 -88 -173 -97 0 -18 104 -143 177 -214 163
-157 325 -245 547 -298 125 -30 367 -30 492 0 166 39 302 101 429 196 124 92
295 283 282 315 -2 7 -40 32 -84 56 -67 35 -90 42 -137 42 -69 0 -100 -15
-186 -88 -176 -149 -337 -212 -547 -212 -219 0 -401 72 -567 224 -27 25 -63
52 -81 61 -43 20 -112 27 -152 15z"/>
</g>
</svg>
